<svg data-v-423bf9ae="" xmlns="http://www.w3.org/2000/svg" viewBox="0 0 547.3446231491242 163" class="iconAbove"><!----><!----><!----><g data-v-423bf9ae="" id="2fb914d5-d453-4d4f-8981-e26d69cbe286" fill="#361C00" transform="matrix(5.649717575005543,0,0,5.649717575005543,0.39547444733233306,82.77401198935655)"><path d="M-0.07 14.08L2.49 14.08L3.21 12.28L7.49 12.28L8.19 14.08L10.85 14.08L6.72 4.28L4.16 4.28ZM3.93 10.39L5.36 6.76L6.76 10.39ZM11.05 8.47L12.10 8.47L12.10 11.80C12.10 13.37 13.15 14.20 14.60 14.20C15.33 14.20 16.07 14 16.62 13.68L16.14 12.00C15.78 12.15 15.46 12.25 15.20 12.25C14.76 12.26 14.50 12.01 14.50 11.42L14.50 8.47L16.48 8.47L16.48 6.87L14.50 6.87L14.50 4.79L12.10 4.79L12.10 6.89L11.05 6.89ZM17.91 14.08L20.33 14.08L20.33 10.36C20.33 9.32 20.92 8.57 21.87 8.57C22.69 8.57 23.20 9.11 23.20 10.00L23.20 14.08L25.62 14.08L25.62 9.32C25.62 7.56 24.53 6.43 22.86 6.43C21.74 6.44 20.86 6.89 20.33 7.78L20.33 3.70L17.91 3.70ZM27.40 14.08L29.82 14.08L29.82 3.70L27.40 3.70ZM31.19 10.33C31.19 12.63 32.73 14.17 35.20 14.17C36.58 14.17 37.72 13.68 38.49 12.84L37.21 11.59C36.71 12.10 36.06 12.36 35.41 12.36C34.51 12.36 33.87 11.86 33.63 10.96L38.93 10.96C39.10 8.20 37.79 6.45 35.13 6.45C32.79 6.45 31.19 7.99 31.19 10.33ZM33.59 9.66C33.74 8.75 34.31 8.13 35.15 8.13C36.02 8.13 36.61 8.74 36.61 9.66ZM39.55 8.47L40.60 8.47L40.60 11.80C40.60 13.37 41.65 14.20 43.11 14.20C43.83 14.20 44.58 14 45.12 13.68L44.65 12.00C44.28 12.15 43.96 12.25 43.71 12.25C43.26 12.26 43.01 12.01 43.01 11.42L43.01 8.47L44.98 8.47L44.98 6.87L43.01 6.87L43.01 4.79L40.60 4.79L40.60 6.89L39.55 6.89ZM45.71 10.33C45.71 12.63 47.25 14.17 49.71 14.17C51.10 14.17 52.23 13.68 53.00 12.84L51.73 11.59C51.23 12.10 50.58 12.36 49.92 12.36C49.03 12.36 48.38 11.86 48.15 10.96L53.45 10.96C53.62 8.20 52.30 6.45 49.64 6.45C47.31 6.45 45.71 7.99 45.71 10.33ZM48.10 9.66C48.26 8.75 48.83 8.13 49.67 8.13C50.54 8.13 51.13 8.74 51.13 9.66ZM54.64 8.11L56.46 8.11L56.46 4.28L54.64 4.28ZM57.53 13.12C58.44 13.82 59.65 14.18 60.91 14.18C62.73 14.18 64.09 13.33 64.09 11.77C64.11 9.14 60.13 9.65 60.13 8.61C60.13 8.26 60.44 8.09 60.87 8.09C61.50 8.09 62.34 8.36 63.25 8.85L64.08 7.28C63.15 6.73 62.06 6.43 60.97 6.43C59.22 6.43 57.90 7.27 57.90 8.82C57.89 11.47 61.80 10.89 61.80 12.00C61.80 12.35 61.45 12.52 60.97 12.52C60.13 12.52 59.15 12.18 58.30 11.58ZM68.12 8.47L69.15 8.47L69.15 14.08L71.54 14.08L71.54 8.47L73.25 8.47L73.25 6.87L71.54 6.87L71.54 6.33C71.54 5.77 71.92 5.49 72.41 5.50C72.69 5.50 73.02 5.61 73.29 5.81L74.14 4.12C73.57 3.78 72.77 3.58 72.03 3.58C70.41 3.58 69.15 4.51 69.15 6.17L69.15 6.87L68.12 6.87ZM73.47 10.30C73.47 12.63 75.12 14.17 77.60 14.17C80.07 14.17 81.72 12.63 81.72 10.30C81.72 7.98 80.07 6.45 77.60 6.45C75.12 6.45 73.47 7.98 73.47 10.30ZM75.91 10.33C75.91 9.17 76.59 8.37 77.60 8.37C78.60 8.37 79.28 9.17 79.28 10.33C79.28 11.51 78.60 12.29 77.60 12.29C76.59 12.29 75.91 11.51 75.91 10.33ZM82.39 10.30C82.39 12.63 84.04 14.17 86.52 14.17C88.98 14.17 90.64 12.63 90.64 10.30C90.64 7.98 88.98 6.45 86.52 6.45C84.04 6.45 82.39 7.98 82.39 10.30ZM84.83 10.33C84.83 9.17 85.51 8.37 86.52 8.37C87.51 8.37 88.20 9.17 88.20 10.33C88.20 11.51 87.51 12.29 86.52 12.29C85.51 12.29 84.83 11.51 84.83 10.33ZM91.24 8.47L92.29 8.47L92.29 11.80C92.29 13.37 93.34 14.20 94.79 14.20C95.52 14.20 96.26 14 96.81 13.68L96.33 12.00C95.97 12.15 95.65 12.25 95.40 12.25C94.95 12.26 94.70 12.01 94.70 11.42L94.70 8.47L96.67 8.47L96.67 6.87L94.70 6.87L94.70 4.79L92.29 4.79L92.29 6.89L91.24 6.89Z"></path></g><defs data-v-423bf9ae=""><linearGradient data-v-423bf9ae="" gradientTransform="rotate(25)" id="7b9b1b99-6b21-4763-ab8c-40be345002a3" x1="0%" y1="0%" x2="100%" y2="0%"><stop data-v-423bf9ae="" offset="0%" style="stop-color: rgb(235, 76, 0); stop-opacity: 1;"></stop><stop data-v-423bf9ae="" offset="100%" style="stop-color: rgb(242, 169, 0); stop-opacity: 1;"></stop></linearGradient></defs><g data-v-423bf9ae="" id="35d74bcf-8b94-442c-8f0c-06c89974af4c" transform="matrix(2.4287567427118386,0,0,2.4287567427118386,152.46230407339414,-75.96440985940701)" stroke="none" fill="url(#7b9b1b99-6b21-4763-ab8c-40be345002a3)"><path d="M71.555 55.712c-1.982-1.312-4.85-2.007-8.742-2.114l-4.379-13.51a1.497 1.497 0 0 0-1.692-1.015 6.57 6.57 0 0 1-1.152.107h-.002c-2.717 0-4.403-2.053-6.033-4.036-1.482-1.807-3.016-3.673-5.316-3.673-1.734 0-3.465 1.07-5.449 3.369l-8.29 9.527a1.494 1.494 0 0 0 .155 2.115l25.291 21.68c.271.234.621.365.979.365h16.674a1.5 1.5 0 0 0 1.5-1.5v-4.014c-.005-3.288-1.197-5.747-3.544-7.301zm-7.912.927c2.83.154 4.894.672 6.256 1.574 1.027.68 1.668 1.618 1.977 2.872h-8.859c.71-1.208.919-2.692.626-4.446zM44.234 34.472c.885.001 1.912 1.252 3 2.576 1.878 2.287 4.217 5.134 8.352 5.134h.002c.121 0 .244-.003.367-.008l4.328 13.355.1.322c.613 1.961.936 3.813-1.516 4.992l-13.375-11.55c2.873-6.743-.5-11.547-2.826-14.079.783-.612 1.291-.742 1.568-.742zm-3.673 2.906c2.244 2.535 3.882 5.656 2.502 9.818l-6.292-5.435 3.79-4.383zm31.531 28.151H57.479l-23.73-20.334 1.062-1.163L57.606 63.72c.242.207.647.364.979.364h13.507v1.445zm-26.619-2.838H26.406a1.5 1.5 0 1 0 0 3h19.066a1.5 1.5 0 0 0 .001-3zm-19.068-9.502h4.646a1.5 1.5 0 1 0 0-3h-4.646a1.5 1.5 0 1 0 0 3zm0 6.249H38.27a1.5 1.5 0 1 0 0-3H26.405a1.5 1.5 0 1 0 0 3zm27.284-12.927a1.5 1.5 0 1 0 0-3 1.5 1.5 0 0 0 0 3zm-.205 2.627a1.5 1.5 0 1 0 3.001-.001 1.5 1.5 0 0 0-3.001.001zm1.295 4.121a1.5 1.5 0 1 0 3 0 1.5 1.5 0 0 0-3 0z"></path></g><!----></svg>